<?xml version="1.0" encoding="utf-8"?>
<!-- Generator: Adobe Illustrator 23.0.3, SVG Export Plug-In . SVG Version: 6.00 Build 0)  -->
<svg version="1.1" id="Layer_1" xmlns="http://www.w3.org/2000/svg" xmlns:xlink="http://www.w3.org/1999/xlink" x="0px" y="0px"
	 viewBox="0 0 234 125" style="enable-background:new 0 0 234 125;" xml:space="preserve">
<g>
	<path d="M100.45,47.97h-1.32v3.24c0,0.77,0.67,1.03,1.32,1.03c1.46,0,1.92-0.84,1.92-2.33C102.37,48.06,100.91,47.97,100.45,47.97z
		"/>
	<path d="M101.92,43.31c0-1.15-0.62-1.85-1.49-1.85h-1.3v3.74h1.42C101.36,45.21,101.92,44.44,101.92,43.31z"/>
	<polygon points="80.63,43.33 79.14,48.28 82.26,48.28 80.77,43.33 	"/>
	<path d="M117.5,4C54.26,4,3,30.19,3,62.5S54.26,121,117.5,121S232,94.81,232,62.5S180.74,4,117.5,4z M110.48,41.85
		c1.34-2.18,3.72-3.58,7.1-3.58c5.4,0,8.38,3.53,8.38,8.57c0,5.04-2.98,8.57-8.38,8.57c-5.4,0-8.38-3.53-8.38-8.57
		C109.21,44.9,109.64,43.21,110.48,41.85z M91.79,55h-9.6v-2.33c0.6,0,1.08-0.17,1.08-0.82c0-0.34-0.19-0.79-0.19-0.79H78.3
		c0,0-0.17,0.43-0.17,0.77c0,0.48,0.48,0.84,1.2,0.84V55h-6.31v-2.33c1.3,0,1.51-0.29,1.94-1.49l4.46-12.62h5.47l4.9,12.55
		c0.17,0.45,0.64,1.54,2.07,1.56c0.84-0.02,1.45-0.31,1.45-1.94v-7.78c0-1.68-0.65-1.94-1.54-1.94v-2.33h10.75
		c2.42,0,5.04,1.06,5.04,3.91c0,1.58-0.74,3.05-2.04,3.58v0.05c1.99,0.7,2.83,2.04,2.83,4.06c0,4.2-3.98,4.73-6.58,4.73h-9.89H91.79
		z M119.56,70.03c-0.86,0-1.54,0.24-1.54,1.92v7.8c0,1.66,0.67,1.92,1.54,1.92V84h-8.88v-2.33c0.86,0,1.54-0.26,1.54-1.94v-5.14
		h-0.1L107.87,84h-1.39l-3.62-9.36h-0.1v5.11c0,1.66,0.7,1.92,1.56,1.92V84h-6.24v-2.33c0.89,0,1.54-0.26,1.54-1.94v-7.78
		c0-1.68-0.65-1.92-1.54-1.92v-2.35h8.06l2.66,7.08h0.07l3.1-7.08h7.58V70.03z M135.71,84h-15.07v-2.33c0.89,0,1.54-0.26,1.54-1.94
		v-7.78c0-1.68-0.65-1.94-1.54-1.94v-2.33h14.64l0.29,5.54h-2.04l-0.07-0.65c-0.22-2.02-1.3-2.11-3.02-2.11h-2.45v3.77h0.79
		c1.22,0,1.27-1.08,1.27-1.58h2.16v6.38h-2.16v-0.26c0-1.49-0.43-1.78-1.18-1.78h-0.89v2.28c0,1.56,1.25,1.97,1.92,1.97h1.54
		c2.66,0,2.69-2.52,2.78-3.24h1.94L135.71,84z M143.51,41.01c-0.86,0-1.56,0.26-1.56,1.94v5.23c0,2.57-0.55,4.87-2.45,6.17
		c-0.98,0.65-2.45,1.06-4.08,1.06c-1.78,0-3.36-0.22-4.56-0.77c-2.09-0.98-3.12-2.9-3.12-6v-5.69c0-1.68-0.67-1.94-1.54-1.94v-2.33
		h9.36v2.33c-0.67,0-2.02-0.26-2.02,2.04v5.71c0,1.1,0.14,3.26,2.69,3.26c1.75,0,2.59-1.2,2.59-3.34v-5.74
		c0-1.68-0.74-1.94-1.8-1.94v-2.33h6.48V41.01z M158.12,44.2L158,43.58c-0.36-1.92-0.74-2.11-1.61-2.11h-1.08v9.29
		c0,1.66,0.67,1.92,1.54,1.92V55h-8.9v-2.33c0.86,0,1.56-0.26,1.56-1.94v-9.26h-1.3c-0.86,0-1.27,0.19-1.63,2.11l-0.12,0.62h-2.23
		l0.29-5.52h15.79l0.31,5.52H158.12z"/>
	<path d="M117.59,52.55c1.63,0,2.11-2.57,2.11-5.71c0-3.17-0.48-5.71-2.11-5.71c-1.63,0-2.11,2.54-2.11,5.71
		C115.48,49.98,115.96,52.55,117.59,52.55z"/>
</g>
</svg>
