<?xml version="1.0" encoding="utf-8"?>
<!-- Generator: Adobe Illustrator 23.0.3, SVG Export Plug-In . SVG Version: 6.00 Build 0)  -->
<svg version="1.1" id="Layer_1" xmlns="http://www.w3.org/2000/svg" xmlns:xlink="http://www.w3.org/1999/xlink" x="0px" y="0px"
	 viewBox="0 0 352 83" style="enable-background:new 0 0 352 83;" xml:space="preserve">
<g id="Group_13" transform="translate(533.398 -413.473)">
	<path id="Path_58" d="M-322.04,434.88c-1.5,5.97-4.36,8.67-10.3,8.16c-5.49-0.5-11.01-0.46-16.48,0.12
		c-1.86,0.21-4.41,2.67-4.93,4.58c-0.96,3.48,1.08,5.45,4.99,5.35c5.73-0.14,11.48-0.23,17.2,0.09c8.71,0.49,11.98,4.57,11.94,14.2
		c-0.04,9.4-3.61,13.73-12.23,13.95c-10.08,0.26-20.17,0.06-30.7,0.06c1-5.81,3.58-8.67,9.58-8.3c5.94,0.37,11.93-0.03,17.89,0.12
		c4.08,0.1,5.75-1.58,5.8-5.69c0.04-4.02-1.3-5.92-5.54-5.82c-6.19,0.25-12.39,0.19-18.57-0.2c-6.84-0.55-10.08-5.07-10.22-13.1
		c-0.14-7.81,3.2-13.06,9.83-13.4C-343.36,434.49-332.88,434.88-322.04,434.88z"/>
	<path id="Path_59" d="M-301,442.93v10.57h24.58c0.21,2.67,0.36,4.62,0.6,7.58h-25.16v12.1c6.58,0,13.13,0.37,19.63-0.11
		c5.85-0.43,8.93,2,10.45,7.87h-39.38v-45.79h38.97c-0.93,5.5-3.52,8.21-9.47,7.86C-287.35,442.63-293.96,442.93-301,442.93z"/>
	<path id="Path_60" d="M-470.3,435.11h8.75c0,4.77-0.33,9.32,0.18,13.77c0.18,1.56,2.33,4.04,3.69,4.13
		c7.01,0.42,14.07,0.19,21.91,0.19v-18.01h9.07v45.84h-8.88v-19.13h-25.92v19.18h-8.79L-470.3,435.11z"/>
	<path id="Path_61" d="M-420.95,480.8c7-14.74,13.67-28.99,20.54-43.12c1.82-3.73,9.62-4.45,11.39-0.92
		c7.21,14.45,14.02,29.1,21.12,44.01c-6.37,1.31-11.15,1.55-13.19-5.44c-0.44-1.51-3.17-3.17-4.95-3.31
		c-5.7-0.4-11.43-0.4-17.13-0.01c-1.61,0.1-4.12,1.64-4.49,2.99C-409.55,481.86-414.21,482.29-420.95,480.8z M-386.19,463.43
		c-2.8-6.3-5.21-11.73-8.29-18.67c-3.08,7.12-5.45,12.6-8.07,18.67H-386.19z"/>
	<path id="Path_62" d="M-477.38,434.88c-1.68,6.54-4.95,8.85-10.79,8.27c-5-0.5-10.09-0.06-15.14-0.1c-4.74-0.04-7.32,2.01-7.25,7
		c0.08,5.28,0.07,10.56-0.01,15.84c-0.08,5.01,2.59,7,7.28,6.99c4.82-0.01,9.68,0.41,14.45-0.08c6.01-0.61,9.64,1.62,11.25,7.72
		c-11.26,0-22.52,0.55-33.69-0.24c-5.49-0.39-8.59-5.29-8.84-10.86c-0.4-7.56-0.4-15.13,0.02-22.69
		c0.46-7.01,4.96-11.44,12.11-11.76C-497.95,434.55-487.89,434.88-477.38,434.88z"/>
	<path id="Path_63" d="M-207.86,484.36c0-11.14,0.02-21.6-0.01-32.06c-0.01-6.16,4.63-4.49,7.9-4.45c3.24,0.04,7.1-1.63,8.09,4.41
		C-189.54,466.53-195.82,476.22-207.86,484.36z"/>
	<path id="Path_64" d="M-248.5,472.54h36.91c0,4.08,0.2,8.09-0.13,12.05c-0.1,1.15-1.74,3.12-2.65,3.11
		c-8.78-0.14-18.38,3.05-25.03-6.26C-241.56,478.42-244.75,476.15-248.5,472.54z"/>
	<path id="Path_65" d="M-194.55,443.66h-36.07c-0.41-0.78-0.81-1.18-0.78-1.55c0.34-4.4,0.19-12.45,1.21-12.6
		c6.56-0.99,14.02-1.88,19.94,0.4C-204.63,432.09-200.52,438.19-194.55,443.66z"/>
	<path id="Path_66" d="M-235.83,431.32v35.84c-0.83,0.52-1.24,0.99-1.58,0.95c-4.52-0.49-10.04,0.33-13.28-1.99
		c-3.33-2.4-0.08-19.66,3.15-23C-243.93,439.4-240.24,435.75-235.83,431.32z"/>
</g>
</svg>
