<?xml version="1.0" encoding="utf-8"?>
<!-- Generator: Adobe Illustrator 23.0.3, SVG Export Plug-In . SVG Version: 6.00 Build 0)  -->
<svg version="1.1" id="Layer_1" xmlns="http://www.w3.org/2000/svg" xmlns:xlink="http://www.w3.org/1999/xlink" x="0px" y="0px"
	 viewBox="0 0 257.94 120" style="enable-background:new 0 0 257.94 120;" xml:space="preserve">
<style type="text/css">
	.st0{fill:#3B4AFF;}
</style>
<g id="Group_47" transform="translate(-835.5 -66.521)">
	<path id="Subtraction_1" class="st0" d="M963.95,183.03L840.5,125.81l123.45-53.29l128.49,53.29L963.95,183.03L963.95,183.03z
		 M1015.6,127.27c-2.43-0.05-4.78,0.86-6.54,2.54c-1.63,1.64-2.54,3.86-2.51,6.17c-0.05,2.16,0.73,4.25,2.17,5.86
		c1.76,1.75,4.18,2.68,6.66,2.57c1.55-0.06,3.09-0.35,4.55-0.87c0.76-0.28,1.55-0.46,2.36-0.53h0.43v-3.7
		c0-1.59,0.62-1.92,1.56-1.92v-2.33h-8.33v2.33c1.03,0,1.54,0.55,1.54,1.68c0.12,0.97-0.57,1.86-1.55,1.98
		c-0.07,0.01-0.14,0.01-0.2,0.01c-1.12,0-1.94-0.75-2.45-2.23c-0.33-1.09-0.5-2.22-0.5-3.36c-0.04-1.31,0.29-2.62,0.94-3.76
		c0.55-0.99,1.6-1.61,2.73-1.62c2.8,0,3.13,1.93,3.41,3.48h2.5l-0.14-5.04C1020.12,127.72,1017.87,127.29,1015.6,127.27z
		 M993.83,136.01h0.07l9.19,8.4h1.8v-12.46c0-1.6,0.59-1.92,1.54-1.92v-2.35h-6.55v2.33c0.93-0.12,1.78,0.54,1.91,1.47
		c0.02,0.16,0.02,0.32-0.01,0.48v3.33h-0.1l-8.54-7.61h-3.96v2.33c0.95,0,1.54,0.33,1.54,1.94v7.77c0,1.62-0.59,1.94-1.54,1.94V144
		h6.58v-2.33c-0.89,0-1.92-0.22-1.92-1.94L993.83,136.01L993.83,136.01z M920.61,136.73h0.12l2.16,7.39h5.23l3.53-13.22
		c0.22-0.59,0.81-0.96,1.44-0.89v-2.33h-7.01v2.33c0.34-0.04,0.68,0.07,0.93,0.32c0.25,0.33,0.13,0.9-0.04,1.51l-1.22,4.54h-0.12
		l-2.52-8.69h-3.5l-2.69,8.69h-0.1l-1.13-4.73c-0.17-0.43-0.13-0.91,0.09-1.32c0.23-0.23,0.55-0.35,0.87-0.32v-2.33h-9.05v2.33
		c0.94-0.13,1.8,0.52,1.94,1.46c0,0.02,0,0.04,0.01,0.06l3.31,12.6h5.62L920.61,136.73L920.61,136.73z M979.1,127.68v2.33
		c0.95,0,1.54,0.33,1.54,1.94v7.77c0,1.62-0.59,1.94-1.54,1.94V144h8.88v-2.33c-0.8,0-1.54-0.24-1.54-1.94v-7.77
		c0-1.71,0.74-1.94,1.54-1.94v-2.33L979.1,127.68L979.1,127.68z M965.73,130.46h1.3v9.26c0,1.61-0.62,1.94-1.56,1.94V144h8.9v-2.33
		c-0.92,0-1.54-0.33-1.54-1.92v-9.29h1.08c0.86,0,1.25,0.19,1.61,2.11l0.12,0.62h2.5l-0.31-5.52h-15.79l-0.29,5.52h2.23l0.12-0.62
		C964.45,130.66,964.87,130.46,965.73,130.46L965.73,130.46z M941.15,137.38h0.7l3.96,6.62h14.98v-2.33c-0.8,0-1.54-0.24-1.54-1.94
		v-7.78c0-1.71,0.74-1.94,1.54-1.94v-2.33h-8.88v2.33c0.95,0,1.54,0.33,1.54,1.94v7.77c0,1.56-0.55,1.9-1.37,1.94
		c-0.75,0.02-1.45-0.35-1.85-0.98l-3.19-3.82c1.76-0.79,2.87-2.56,2.81-4.49c0.05-1.49-0.63-2.9-1.82-3.79
		c-1.1-0.67-2.37-0.99-3.65-0.91H933.8V130c0.95,0,1.54,0.33,1.54,1.94v7.77c0,1.62-0.59,1.94-1.54,1.94V144h9.24v-2.33
		c-1.14,0-1.9-0.33-1.9-1.94L941.15,137.38L941.15,137.38z M954.75,98.28c-1.5-0.03-2.98,0.3-4.32,0.97
		c-1.15,0.6-2.11,1.5-2.79,2.61c-0.88,1.51-1.32,3.24-1.27,4.99c0,5.29,3.21,8.57,8.38,8.57s8.38-3.28,8.38-8.57
		S959.91,98.27,954.75,98.28L954.75,98.28z M939.01,98.28c-4.76-0.13-8.73,3.63-8.85,8.39c0,0.12,0,0.25,0,0.37
		c-0.07,2.18,0.74,4.3,2.24,5.88c1.9,1.74,4.43,2.64,7,2.5c2.17-0.05,4.27-0.76,6.02-2.04l-1.25-2.76
		c-1.13,0.91-2.53,1.42-3.98,1.46c-1.23,0.04-2.38-0.64-2.95-1.73c-0.6-1.19-0.89-2.51-0.84-3.84c0-1.5,0.58-5.38,3.21-5.38
		c0.97-0.04,1.89,0.39,2.5,1.14c0.5,0.67,0.77,1.48,0.77,2.31h2.23l-0.19-5.09C943.05,98.71,941.04,98.29,939.01,98.28L939.01,98.28
		z M979.49,98.68v2.33h0.6c0.7,0.05,1.32,0.48,1.61,1.13l3.29,5.71v2.88c0,1.61-0.6,1.94-1.51,1.94V115h8.88v-2.33
		c-0.94,0-1.56-0.33-1.56-1.94v-2.98l4-5.93c0.32-0.54,0.91-0.85,1.54-0.82v-2.33h-6.17V101c0.34,0,0.96,0,0.96,0.53
		c-0.05,0.3-0.17,0.59-0.34,0.84l-1.13,2.23h-0.1l-1.15-2.18v-0.01c-0.16-0.27-0.26-0.57-0.31-0.88c0-0.36,0.3-0.53,0.91-0.53v-2.33
		L979.49,98.68z M963.6,98.68v2.33c0.92,0,1.54,0.33,1.54,1.94v7.78c0,1.62-0.59,1.94-1.54,1.94V115h9.24v-2.33
		c-1.14,0-1.9-0.33-1.9-1.92v-2.18c0.91,0.16,1.84,0.24,2.76,0.24c1.28,0.02,2.54-0.29,3.66-0.9c1.41-0.83,2.23-2.37,2.13-4
		c0.03-1.43-0.53-2.81-1.54-3.82c-1.11-0.98-2.56-1.49-4.03-1.42L963.6,98.68z M942.31,134.78h-1.15v-4.32h1.32
		c0.98,0,1.46,0.68,1.46,2.09C943.93,133.91,943.29,134.78,942.31,134.78L942.31,134.78z M954.75,112.55c-1.4,0-2.11-1.92-2.11-5.71
		c-0.05-1.36,0.1-2.72,0.44-4.04c0.35-1.11,0.91-1.67,1.67-1.67s1.32,0.56,1.67,1.67c0.34,1.32,0.49,2.68,0.44,4.04
		C956.86,110.63,956.15,112.55,954.75,112.55L954.75,112.55z M972.13,105.93c-0.4-0.02-0.79-0.07-1.18-0.14v-4.32h0.96
		c1.05-0.04,1.93,0.78,1.97,1.83c0,0.07,0,0.14,0,0.21C973.87,104.98,973.19,105.93,972.13,105.93L972.13,105.93z"/>
</g>
</svg>
