<?xml version="1.0" encoding="utf-8"?>
<!-- Generator: Adobe Illustrator 23.0.3, SVG Export Plug-In . SVG Version: 6.00 Build 0)  -->
<svg version="1.1" id="Layer_1" xmlns="http://www.w3.org/2000/svg" xmlns:xlink="http://www.w3.org/1999/xlink" x="0px" y="0px"
	 viewBox="0 0 222 136" style="enable-background:new 0 0 222 136;" xml:space="preserve">
<style type="text/css">
	.st0{fill:#FF5F3B;}
</style>
<g>
	<path class="st0" d="M68.73,68.49h-1.54v8.59c0,1.8,0.94,2.28,1.82,2.28c2.47,0,2.33-3.6,2.33-5.64
		C71.34,70.36,70.72,68.49,68.73,68.49z"/>
	<path class="st0" d="M130.67,68.46h-1.32v4.32h1.15c1.01,0,1.63-0.91,1.63-2.23C132.14,69.3,131.75,68.46,130.67,68.46z"/>
	<path class="st0" d="M113.15,68.13c-1.63,0-2.11,2.54-2.11,5.71c0,3.14,0.48,5.71,2.11,5.71c1.63,0,2.11-2.57,2.11-5.71
		C115.26,70.67,114.78,68.13,113.15,68.13z"/>
	<polygon class="st0" points="157.19,70.33 155.7,75.28 158.82,75.28 157.34,70.33 	"/>
	<path class="st0" d="M162,20c-14.84,0-28.32,5.78-38.34,15.2C112.4,18.22,93.02,7,71,7C36.21,7,8,34.98,8,69.5
		C8,104.02,36.21,132,71,132c18.8,0,35.66-8.18,47.2-21.13C128.46,123.74,144.26,132,162,132c30.93,0,56-25.07,56-56
		C218,45.07,192.93,20,162,20z M58.55,82H43.48v-2.33c0.89,0,1.54-0.26,1.54-1.94v-7.78c0-1.68-0.65-1.94-1.54-1.94v-2.33h14.64
		l0.29,5.54h-2.04l-0.07-0.65c-0.22-2.02-1.3-2.11-3.02-2.11h-2.45v3.77h0.79c1.22,0,1.27-1.08,1.27-1.58h2.16v6.38h-2.16v-0.26
		c0-1.49-0.43-1.78-1.18-1.78h-0.89v2.28c0,1.56,1.25,1.97,1.92,1.97h1.54c2.66,0,2.69-2.52,2.78-3.24h1.94L58.55,82z M69.69,82
		h-9.84v-2.33c0.89,0,1.54-0.26,1.54-1.94v-7.78c0-1.68-0.65-1.94-1.54-1.94v-2.33h9.31c4.97,0,8.42,2.52,8.42,7.92
		C77.59,78.69,74.94,82,69.69,82z M86.7,68.01c-0.84,0-1.54,0.26-1.54,1.94v7.78c0,1.68,0.7,1.94,1.54,1.94V82h-8.88v-2.33
		c0.89,0,1.54-0.26,1.54-1.94v-7.78c0-1.68-0.65-1.94-1.54-1.94v-2.33h8.88V68.01z M101.56,71.2l-0.12-0.62
		c-0.36-1.92-0.74-2.11-1.61-2.11h-1.08v9.29c0,1.66,0.67,1.92,1.54,1.92V82h-8.9v-2.33c0.86,0,1.56-0.26,1.56-1.94v-9.26h-1.3
		c-0.86,0-1.27,0.19-1.63,2.11L89.9,71.2h-2.23l0.29-5.52h15.79l0.31,5.52H101.56z M113.15,82.41c-5.4,0-8.38-3.53-8.38-8.57
		c0-1.94,0.43-3.62,1.27-4.99c1.34-2.18,3.72-3.58,7.1-3.58c5.4,0,8.38,3.53,8.38,8.57C121.53,78.88,118.55,82.41,113.15,82.41z
		 M148.98,68.01c-0.84,0-1.54,0.26-1.54,1.94v7.78c0,1.68,0.7,1.94,1.54,1.94V82h-8.52h-0.36h-6.1l-3.96-6.62h-0.7v2.35
		c0,1.68,0.84,1.94,1.9,1.94V82h-9.24v-2.33c0.89,0,1.54-0.26,1.54-1.94v-7.78c0-1.68-0.65-1.94-1.54-1.94v-2.33h10.56
		c1.3,0,2.57,0.17,3.65,0.91s1.82,2.11,1.82,3.79c0,0.7-0.14,3.36-2.81,4.49l3.19,3.82c0.5,0.61,0.87,0.94,1.85,0.98
		c0.8-0.04,1.37-0.37,1.37-1.94v-7.78c0-1.68-0.65-1.94-1.54-1.94v-2.33h8.88V68.01z M183.28,82h-14.81h-0.12h-9.6v-2.33
		c0.6,0,1.08-0.17,1.08-0.82c0-0.34-0.19-0.79-0.19-0.79h-4.78c0,0-0.17,0.43-0.17,0.77c0,0.48,0.48,0.84,1.2,0.84V82h-6.31v-2.33
		c1.3,0,1.51-0.29,1.94-1.49l4.46-12.62h5.47l4.9,12.55c0.17,0.45,0.64,1.54,2.07,1.56c0.84-0.02,1.45-0.31,1.45-1.94v-7.78
		c0-1.68-0.65-1.94-1.54-1.94v-2.33h8.88v2.33c-0.84,0-1.54,0.26-1.54,1.94v7.37c0,1.39,1.18,1.92,1.87,1.92h1.1
		c2.64,0,3.02-2.54,3.12-3.24h1.94L183.28,82z"/>
</g>
</svg>
