<?xml version="1.0" encoding="utf-8"?>
<!-- Generator: Adobe Illustrator 23.0.3, SVG Export Plug-In . SVG Version: 6.00 Build 0)  -->
<svg version="1.1" id="Layer_1" xmlns="http://www.w3.org/2000/svg" xmlns:xlink="http://www.w3.org/1999/xlink" x="0px" y="0px"
	 viewBox="0 0 245 243" style="enable-background:new 0 0 245 243;" xml:space="preserve">
<g id="Group_6" transform="translate(-1133 -357.68)">
	<path id="Path_3" d="M1261.36,362.68c3.5,0.68,7.03,1.21,10.48,2.07c28.13,6.98,48.59,31.24,50.72,60.14
		c0.08,1.03,0.17,2.06,0.26,3.15c-3.69,0.77-6.71-0.52-9.79-1.88c-3.04-1.32-6.15-2.47-9.31-3.46c-1.09-0.35-2.37-0.05-3.87-0.05
		c0.88,1.91,1.5,3.4,2.26,4.82c0.31,0.43,0.76,0.74,1.27,0.88c3.19,1.1,6.41,2.14,9.61,3.22c3.04,1.02,6.08,2.06,9.11,3.09l0.21-0.6
		c0.09,0.13,0.25,0.26,0.25,0.39c0.03,4.55-0.98,5.34-5.32,3.79c-1.98-0.7-3.75-1.97-5.69-2.79c-2.19-0.93-4.47-1.64-7.37-2.68
		c0.44,2.36,0.72,3.91,1.06,5.73c5.92,0,9.69,6.1,16.16,5.2c-0.16,0.8-0.25,1.39-0.39,1.97c-0.99,4.04-1.83,4.39-5.63,2.36
		c-2.08-1.11-4.09-2.35-6.22-3.35c-1.03-0.32-2.09-0.49-3.17-0.53v3.82l12.5,6.18c-0.09-0.35,0.02-0.17-0.02-0.05
		c-2.09,5.64-2.03,5.54-6.89,2.08c-1.63-1.16-3.68-1.73-5.89-2.73c-0.38,1.76-0.6,2.83-0.72,3.37l9.52,5.95l-2.74,4.52l-7.86-5.47
		l0.5-2.31c-3.32-1.48-6.4-2.8-9.43-4.24c-0.65-0.31-1.13-0.9-1.3-1.6c-0.15-3.22-1.55-6.27-3.89-8.49
		c-4.98-5.05-5.82-10.44-3.49-17.14c2.73-7.87,0.14-14.9-5.38-20.92c-0.39-0.34-0.81-0.65-1.25-0.93c1.39,2.72,2.74,5,3.76,7.41
		c2.15,5.09,1.65,10.29-0.26,15.27c-2.31,6.02-1.64,11.31,2.87,16.02c0.22,0.23,0.39,0.53,0.61,0.77
		c4.47,4.85,4.86,10.07,1.44,15.65c-0.33,0.54-0.57,1.15-0.89,1.82c2.93,2.99,6.67,5.06,10.76,5.95c1.84,0.39,3.27,0.04,3.89-1.91
		c0.1-0.81,0.84-1.38,1.64-1.27c0.31,0.04,0.6,0.18,0.83,0.39c1.8,1.21,3.46,2.63,5.31,4.07l-3.27,4.1l-5.53-4.74l-1.63,2.55
		l0.75-0.57l4.19,4.94l-3.96,4.07l-3.72-3.89l-1.79,2.1l3.13,3.79l-4.98,3.73c-1.33-6.83-8.65-10.49-8.07-17.93
		c-1.52,1.38-2.03,3.39-1.18,5.89c0.7,1.82,1.53,3.59,2.49,5.28c0.86,1.66,1.94,3.21,2.72,4.91c1.67,3.61,1.32,4.23-2.21,5.25
		c-1.67-3.66-3.06-7.4-5.01-10.82c-2.88-5.04-2.73-9.67,0.6-14.39c1.4-2.1,2.63-4.31,3.69-6.6c1.66-3.21,1.3-7.09-0.92-9.94
		c-1.39-2.01-2.84-3.98-4.36-5.9c-2.56-3.24-2.9-6.75-1.71-10.61c1.06-3.41,2.36-6.83,2.79-10.34c0.86-7.06-1.94-12.89-7.21-17.56
		c-0.32-0.16-0.66-0.28-1.01-0.36c0.47,0.75,0.72,1.21,1.03,1.62c4.84,6.51,5.58,13.51,2.72,21.04c-0.9,2.35-1.61,4.77-2.28,7.2
		c-0.94,3.39-0.01,6.45,1.98,9.23c1.19,1.66,2.44,3.26,3.71,4.86c3.1,3.92,3.31,8,0.76,12.25c-1.3,2.17-2.59,4.34-3.98,6.45
		c-2.74,4.16-2.78,8.34-0.41,12.68c1.57,2.76,3,5.6,4.27,8.52c1.96,4.69,1.75,4.94-3.47,6.61c0.16-5.43-2.64-9.79-5.08-14.24
		c-2.69-4.9-2.42-9.43,0.75-13.98c1.62-2.34,3.09-4.79,4.39-7.32c1.81-3.33,1.45-7.42-0.91-10.38c-1.22-1.73-2.54-3.39-3.84-5.06
		c-3.3-4.24-2.93-8.77-1.09-13.42c0.99-2.5,2.15-4.94,2.96-7.49c2.26-7.05-0.72-16.03-6.64-20.39c-0.45-0.23-0.92-0.42-1.4-0.57
		c0.78,1.14,1.22,1.77,1.65,2.4c3.74,5.2,4.69,11.9,2.54,17.93c-1.05,3.08-2.47,6.03-3.67,9.05c-2.1,4.67-1.31,10.13,2.03,14.01
		c0.26,0.32,0.48,0.66,0.73,0.98c5.19,6.72,5.3,9.89,0.61,16.93c-1.13,1.7-2.22,3.41-3.28,5.16c-2.2,3.45-2.38,7.81-0.46,11.43
		c0.95,1.98,1.98,3.93,2.83,5.96c0.95,2.07,1.72,4.21,2.32,6.4c1,4.19,0.22,5-4.51,5.05c0.57-5.71-1.7-10.7-4.34-15.49
		c-3.02-5.48-2.66-10.52,1.02-15.54c1.66-2.32,3.15-4.75,4.46-7.28c1.83-3.42,1.39-6.78-0.85-9.89c-2.13-2.96-4.71-5.62-5.36-9.47
		c-0.08-0.47-1.8-1.16-2.49-0.94c-3.03,1.06-6.33,1.04-9.34-0.07c-1.4-0.52-2.16-0.02-2.78,1.43c-0.99,2.55-2.27,4.98-3.8,7.24
		c-4.03,5.5-4.34,8.43-0.8,14.28c1.48,2.44,3.14,4.77,4.61,7.21c2.2,3.65,2.08,7.36,0.37,11.22c-1.77,4-3.4,8.08-4.83,12.21
		c-0.54,1.55-0.35,3.36-0.5,5.06c-0.15,0.05-0.3,0.16-0.43,0.14c-4.48-0.6-5.13-1.24-3.78-5.61c1.23-3.79,2.79-7.47,4.64-11
		c2.53-4.98,2.02-9.53-1.01-14.04c-1.5-2.23-2.99-4.48-4.29-6.83c-2.21-3.5-1.91-8.03,0.75-11.21c0.28-0.4,0.57-0.79,0.89-1.17
		c5.8-6.03,5.93-12.66,2.23-19.77c-2.82-5.42-4.44-11.14-2.54-17.19c0.9-2.87,2.52-5.52,3.99-8.67c-3.05,2.14-5.42,5.12-6.81,8.58
		c-2.21,5.27-1.81,10.48,0.4,15.66c1.1,2.45,2.04,4.97,2.83,7.54c0.98,3.18,0.42,6.63-1.53,9.33c-0.61,0.87-1.24,1.72-1.9,2.55
		c-5.88,7.46-6.35,10.61-0.68,18.3c4.92,6.68,5.38,12.84,0.86,19.75c-2.12,3.25-3.73,6.89-3.46,10.96c-0.23,0.09-0.4,0.23-0.51,0.19
		c-4.69-1.7-4.93-2.1-2.96-6.76c1.12-2.62,2.4-5.17,3.84-7.63c2.8-4.79,2.71-9.4-0.39-14c-1.32-1.96-2.54-3.98-3.74-6.02
		c-2.42-4.09-2.23-8.04,0.71-11.82c0.95-1.22,1.85-2.49,2.86-3.67c3.55-4.13,4.05-8.73,2.26-13.73c-0.85-2.37-1.78-4.73-2.46-7.15
		c-1.74-5.98-0.56-12.43,3.18-17.41c0.42-0.6,0.8-1.21,1.19-1.83c0.02-0.03-0.07-0.12-0.25-0.41c-2.57,1.96-4.62,4.53-5.96,7.48
		c-2.27,4.77-2.58,10.24-0.85,15.24c0.82,2.55,1.63,5.11,2.34,7.69c0.7,2.66,0.1,5.48-1.62,7.63c-1.61,2.25-3.28,4.46-4.87,6.73
		c-2.34,3.08-2.6,7.27-0.67,10.62c1.35,2.6,2.85,5.13,4.4,7.61c2.35,3.77,2.2,7.48,0.24,11.36c-1.99,3.96-3.78,8.03-5.68,12.11
		c-3.43-1.05-3.85-1.79-2.13-5.29c1.29-2.63,2.94-5.08,4.28-7.68c1.4-2.71,1.76-5.51-0.01-8.39c0.25,5.23-3.4,8.53-5.83,12.43
		c-1.02,1.64-1.83,3.4-2.83,5.29l-4.62-3.37l3.04-3.88l-1.74-2.14l-3.64,3.92l-4.28-3.95l4.35-4.75l0.89,0.56l-1.6-2.84l-5.58,4.67
		l-3.22-3.82c1.3-1.21,2.41-2.4,3.68-3.39c2.14-1.69,2.77-1.41,4.46,0.77c0.74,0.78,1.79,1.2,2.86,1.15c4.46-0.5,8.07-2.8,11.3-5.89
		c-0.83-1.84-1.65-3.6-2.4-5.38c-1.4-3.13-0.97-6.77,1.12-9.49c0.79-1.24,1.66-2.42,2.62-3.53c4.4-4.69,5.02-9.9,2.77-15.82
		c-1.96-5.16-2.44-10.5-0.16-15.74c1-2.28,2.32-4.43,3.45-6.55c-2.93,1.58-6.34,6.55-6.92,11.53c-0.4,3.4,0.22,6.92,0.49,10.38
		c0.14,0.97,0.41,1.92,0.8,2.82c1.48,4.15,0.65,7.73-2.22,11.1c-1.94,2.28-4.43,4.75-4.91,7.45c-1.23,6.92-6.29,7.84-11.9,8.89
		l0.62,3.07l-7.85,5.36l-2.79-4.48l9.5-5.95l-0.44-2.52c-2.55-0.61-4.42,0.51-6.19,1.85c-4.8,3.64-4.79,3.64-6.8-2.1
		c-0.02-0.07,0.01-0.16-0.01,0.06l12.47-6.13v-3.55c-2.31-0.54-4.2,0.54-6.11,1.59c-1.78,0.98-3.54,1.98-5.39,2.81
		c-1.73,0.77-2.99,0.42-3.21-1.8c-0.19-1.13-0.44-2.25-0.76-3.36c6.43,1.02,10.2-5.16,16.17-5.14l1.03-5
		c-3.42-0.33-5.99,1.27-8.67,2.58c-1.92,1.04-3.95,1.86-6.06,2.45c-3.1,0.71-3.37,0.36-3.52-2.74c-0.03-0.55,0-1.1,0-1.81
		c4.07,0.24,7.45-1.45,10.93-3.12c2.51-1.21,5.37-1.68,8.04-2.57c0.64-0.2,1.19-0.6,1.57-1.15c0.73-1.26,1.28-2.63,1.98-4.14
		c-2.83-1.01-5.47-0.38-8,0.66c-2.41,0.99-4.63,2.45-7.08,3.3c-2.53,0.72-5.11,1.3-7.71,1.72c0.41-11.74,3.08-22.15,8.65-31.65
		c11.55-19.71,28.66-31.15,51.44-33.91c0.63-0.12,1.26-0.28,1.87-0.48L1261.36,362.68z M1255.5,366.71
		c-1.04,2.4-1.96,4.19-2.59,6.08c-0.37,1.54-1.81,2.58-3.39,2.43c-1.98,0.03-3.95,0.23-6.52,0.4l6.66,5.94
		c-1.01,2.6-1.97,5.08-3,7.74c-4.08-3.88-9.37-6.23-14.98-6.66l5.22,10.46c-3.95-2.1-7.73-3.75-12.19-4.02l7.78,12.81
		c15.39-7.28,30.73-7.28,46.02,0.01c2.58-4.28,5.12-8.48,7.67-12.69l-0.26-0.68l-11.76,4.45c1.64-3.29,3.34-6.71,5.15-10.35
		c-5.6,0.45-10.89,2.79-14.98,6.63c-0.88-2.25-1.78-4.24-2.39-6.32c-0.16-0.85,0.06-1.72,0.61-2.38c1.54-1.62,3.29-3.04,5.5-5.02
		c-2.27-0.11-3.86-0.29-5.44-0.24c-2.58,0.08-4.25-0.85-4.96-3.49C1257.03,370.07,1256.32,368.37,1255.5,366.71L1255.5,366.71z
		 M1253.34,415.41c-2.11,0.11-3.63,0.21-5.15,0.26c-0.79,0.09-1.59,0.06-2.38-0.08c-2.99-0.8-3.86-0.25-3.55,2.92
		c0.43,6.04,3.71,11.51,8.83,14.75c2.7,1.9,6.31,1.86,8.96-0.1c4.98-3.28,8.18-8.66,8.69-14.6c0.07-0.49,0.06-0.98-0.03-1.46
		c-0.32-1.53-0.8-2.64-2.8-1.67c-0.96,0.44-2.05,0.49-3.05,0.15c-1.96-0.82-3.05-0.33-3.73,1.58c-0.08,0.22-0.48,0.33-0.89,0.59
		c-1.09-2.78-1.53-5.71-0.02-7.89c2.42-3.49,6.34-2.81,10.02-1.95c-0.75-4.73-6.64-8.47-12.75-8.54
		c-6.03-0.06-11.54,3.58-12.69,8.29c1.91-0.1,3.92-0.61,5.7-0.17c1.77,0.38,3.34,1.4,4.39,2.87
		C1253.7,411.85,1253.26,414.02,1253.34,415.41L1253.34,415.41z M1202.37,395.33c0.74,11.45-5.21,19.6-12.59,27.86
		c1.22,0.12,2.45,0.1,3.67-0.04c1.95-0.52,3.84-1.27,5.76-1.92c2.99-1.02,6.18-3.27,8.92-2.81c5.2,0.88,7.38-1.98,9.86-5.28
		c1.04-1.26,2.19-2.41,3.44-3.45c1.54-1.39,3.15-2.7,4.88-4.18c-5.71-2.22-10.79-1.16-15.68,1.57
		C1207.8,399.7,1206.29,397.48,1202.37,395.33L1202.37,395.33z M1308.58,395.34c-3.96,2.19-5.46,4.4-8.27,11.73
		c-4.91-2.73-9.98-3.77-15.05-1.8c3.92,4.3,7.7,8.5,11.58,12.62c0.62,0.4,1.36,0.6,2.1,0.57c2.55,0.24,5.2,0.04,7.63,0.68
		c2.88,0.76,5.53,2.36,8.37,3.32c1.79,0.46,3.62,0.77,5.46,0.94l0.3-0.77C1313.76,414.95,1307.88,406.77,1308.58,395.34
		L1308.58,395.34z M1242.83,412.05h7.43c-1.17-2.15-4.71-3.44-6.56-2.18C1243.14,410.25,1243.08,411.36,1242.83,412.05
		L1242.83,412.05z M1267.89,412.05c0.82-1.17,0.29-2-1.19-2.43c-2.52-0.72-5,0.38-5.52,2.43H1267.89z"/>
	<path id="Path_4" d="M1138,536.47c1.95,0.01,3.9,0.02,5.86,0.02c8.41-0.01,12.86,3.38,13.99,11.7c0.52,4.26,0.33,8.57-0.56,12.77
		c-1.27,6.23-5.64,9.24-11.96,9.26c-2.44,0.01-4.88,0.02-7.32,0.03V536.47z M1142.35,566.15c6.43,0.86,9.46-1.06,11.03-6.98
		c1.13-4.19,1.01-8.62-0.33-12.75c-1.63-5.06-5.45-7.06-10.7-5.73L1142.35,566.15z"/>
	<path id="Path_5" d="M1283.88,598.15c-3.89-1.24-7.03-3.27-8.25-7.49c-1.4-4.85,0.26-10.01,4.12-12.58
		c4.68-2.84,10.64-2.5,14.96,0.87l-2.8,3.07c-1.76-0.68-3.58-1.19-5.44-1.52c-2.7-0.18-5.18,1.5-6.03,4.08
		c-1.12,2.72-0.41,5.85,1.77,7.82c1.85,1.56,5.69,2.16,7.57,0.76c0.8-0.59,0.9-2.11,1.46-3.56l-4.18-0.34v-3.81h8.07
		c0,3.3,0.06,6.54-0.06,9.77c-0.17,0.65-0.62,1.19-1.23,1.48c-1.31,0.6-2.72,0.98-4.08,1.45H1283.88z"/>
	<path id="Path_6" d="M1352.46,553.28c0.21,4-0.66,7.99-2.51,11.55c-2.28,4.15-5.81,6.4-10.51,6.34c-4.47,0.11-8.56-2.52-10.31-6.64
		c-3.52-7.13-3.47-15.5,0.12-22.6c2.03-4.16,5.61-6.22,10.26-6.27c4.36-0.17,8.42,2.21,10.4,6.1
		C1351.81,545.29,1352.69,549.28,1352.46,553.28z M1345.07,553.29c-0.52-2.41-0.87-4.83-1.6-7.14c-0.56-1.77-1.94-3.47-3.92-3
		c-1.59,0.44-2.93,1.51-3.71,2.96c-2.06,4.6-2.05,9.87,0.02,14.47c0.57,1.32,2.48,2.96,3.68,2.89c1.39-0.09,3.22-1.65,3.87-3.03
		C1344.4,558.3,1344.55,555.77,1345.07,553.29L1345.07,553.29z"/>
	<path id="Path_7" d="M1306.36,536.63v12.49h7.7v-12.5h7.54v33.39h-7.43v-13.66h-7.77V570h-7.59v-33.37H1306.36z"/>
	<path id="Path_8" d="M1273.69,567.41l3.71-5.45c1.56,0.76,3.15,1.44,4.79,2.02c1.55,0.55,3.26-0.25,3.83-1.79
		c0.77-1.44,0.34-3.23-0.99-4.17c-1.31-0.96-2.71-1.79-4.18-2.5c-4.01-1.82-6.32-6.1-5.64-10.45c0.42-4.26,2.46-7.44,6.65-8.78
		c4.28-1.54,9.07-0.49,12.31,2.71l-3.77,5.37c-1.17-0.61-2.37-1.17-3.6-1.65c-1.52-0.61-3.25,0.1-3.91,1.6
		c-0.9,1.38-0.55,3.22,0.8,4.17c1.48,1,3.02,1.91,4.6,2.74c4.58,2.68,6.41,6.97,5.16,12.06c-1.8,7.31-10.01,10.2-17.13,6
		C1275.48,568.8,1274.73,568.17,1273.69,567.41z"/>
	<path id="Path_9" d="M1216.08,536.5c3.03,0,5.88-0.1,8.72,0.03c4.02,0.18,6.81,2.27,7.76,5.58c1.19,4.16-0.06,7.62-3.85,10.32
		c4.35,1.97,5.67,5.49,5.26,9.92c-0.25,4.26-3.66,7.64-7.92,7.85c-0.57,0.04-1.14,0.03-1.71,0.03c-2.69,0-5.37,0-8.26,0V536.5z
		 M1220.02,566.57c3.2-0.1,6.57,0.92,8.78-2.26c1.52-2.14,1.56-5,0.1-7.18c-2.09-3.43-5.51-2.73-8.88-2.56L1220.02,566.57z
		 M1220.01,550.93c3.14,0.18,6.16,0.65,8.08-2.33c1.36-1.94,1.3-4.54-0.16-6.4c-2.04-2.78-5.02-1.91-7.92-1.91L1220.01,550.93z"/>
	<path id="Path_10" d="M1185.54,553.24c-0.39,4.48-1,8.71-3.26,12.56c-4.08,6.94-13.26,7.26-17.13,0.23
		c-4.53-8.24-4.35-16.91-0.1-25.28c1.9-3.75,5.38-5.32,9.6-4.92c4.65,0.44,7.37,3.43,8.75,7.48
		C1184.49,546.49,1184.86,549.92,1185.54,553.24z M1181.09,553.3c-0.74-3.21-1.26-6.41-2.24-9.47c-0.75-2.34-2.5-4.19-5.15-4.23
		c-2.76-0.04-4.48,1.83-5.39,4.25c-2.39,6.12-2.38,12.91,0.02,19.02c0.89,2.33,2.53,4.13,5.18,4.21c2.81,0.08,4.59-1.82,5.37-4.23
		C1179.87,559.79,1180.35,556.58,1181.09,553.3z"/>
	<path id="Path_11" d="M1359.38,542.97h-6.09v-6.32h19.56v6.28h-6.07v27.16h-7.4L1359.38,542.97z"/>
	<path id="Path_12" d="M1189.78,536.58h4c0.05,0.85,0.12,1.64,0.13,2.42c0.01,6.35-0.08,12.71,0.05,19.06
		c0.07,2.02,0.42,4.03,1.05,5.95c0.66,1.93,2.52,3.2,4.56,3.09c2.04,0.2,3.95-1.02,4.63-2.95c0.67-1.91,1.04-3.9,1.1-5.92
		c0.13-7.15,0.05-14.31,0.05-21.61h4.22v9.56c0,4.32,0.05,8.64-0.02,12.95c-0.01,1.62-0.2,3.24-0.59,4.81
		c-1.24,4.73-4.58,7.17-9.49,7.14c-4.77-0.03-7.93-2.48-9.19-7.19c-0.28-0.94-0.44-1.9-0.48-2.88
		C1189.76,552.96,1189.78,544.9,1189.78,536.58z"/>
	<path id="Path_13" d="M1212.46,597.57h-4.59v-20.83c1.81-0.08,3.61-0.05,5.42,0.08c0.6,0.07,1.21,0.96,1.61,1.6
		c2.49,3.97,4.93,7.99,7.81,11.9v-13.4h4.49v20.71c-1.66,0.08-3.32,0.05-4.98-0.07c-0.73-0.24-1.34-0.75-1.7-1.42
		c-2.6-4.13-5.13-8.3-8.06-13.07L1212.46,597.57z"/>
	<path id="Path_14" d="M1256.31,536.54h13.81v3.75h-9.6v10.7h8.99v3.44h-8.99v11.91h10.11v3.71h-14.32L1256.31,536.54z"/>
	<path id="Path_15" d="M1255.08,576.75c3.2,0,6.2-0.13,9.19,0.03c3.64,0.2,5.81,1.9,6.38,4.64c0.71,3.37-0.41,5.55-4.11,7.68
		l5.08,8.53c-1.32,0.09-2.65,0.08-3.96-0.06c-0.88-0.15-1.67-0.61-2.22-1.3c-1.13-1.79-2.12-3.65-2.97-5.59
		c-0.64-1.42-1.52-1.73-3.04-1.11v7.87h-4.34L1255.08,576.75z M1259.52,585.32c1.46,0.14,2.93,0.11,4.38-0.09
		c0.82-0.21,2.01-1.3,1.98-1.95c-0.17-1.03-0.84-1.91-1.79-2.36c-1.5-0.31-3.04-0.44-4.57-0.38V585.32z"/>
	<path id="Path_16" d="M1248.72,597.56h-14.33v-20.69h13.79v4.12h-9.23v3.93h8.67v4.08h-8.64v4.27h9.76L1248.72,597.56z"/>
	<path id="Path_17" d="M1187.03,597.44v-20.49h13.93v4h-9.39v3.89h8.93v4.25h-8.89v4.1h9.79v4.25L1187.03,597.44z"/>
	<path id="Path_18" d="M1239.04,536.56h4.04v29.6h9.32v3.91h-13.36L1239.04,536.56z"/>
	<path id="Path_19" d="M1298.81,576.74c1.1,0.08,2.21,0.07,3.31-0.03c1.98-0.37,2.95,0.63,3.75,2.24c0.89,1.8,1.94,3.51,3.09,5.55
		c0.94-1.34,1.77-2.75,2.48-4.23c1.33-3.49,3.83-4.23,7.48-3.25c-1.38,2.35-2.88,4.62-4.49,6.81c-2.62,3.05-3.78,7.08-3.2,11.06
		c0.06,0.85,0.06,1.71,0.02,2.57h-4.31c-1.08-3.5,0.99-7.5-1.66-10.94C1303,583.58,1301.14,580.31,1298.81,576.74z"/>
	<path id="Path_20" d="M1250.1,529.16v-11.67c2.6-0.11,5.21-0.08,7.81,0.1c1.15,0.23,2.14,0.99,2.66,2.04
		c0.35,0.95-0.3,2.27-0.51,3.42c0.23,1.28,1.11,3.01,0.59,4.07c-0.51,1.04-2.37,1.75-3.74,1.95
		C1254.65,529.27,1252.37,529.29,1250.1,529.16z"/>
	<path id="Path_21" d="M1239.81,525.84l-0.21,3.2h-3.95v-11.53c2.52-0.16,5.05-0.12,7.56,0.12c1.36,0.34,2.47,1.32,2.98,2.63
		c0.29,1.48-0.55,3.18-0.9,4.79l-0.79-0.06l2.45,3.88c-3.5,1.42-5.21-0.7-6.58-3.53L1239.81,525.84z"/>
	<path id="Path_22" d="M1271.28,517.58h3.96c0.16,2.79,0.13,5.58-0.09,8.37c-0.34,2.49-2.81,3.68-5.95,3.48
		c-2.95-0.19-4.93-1.64-5.18-4.24c-0.23-2.48-0.05-5-0.05-7.62h4.13c-0.09,2.01-0.07,4.02,0.07,6.03c0.11,0.9,1.01,1.71,1.55,2.56
		c0.51-0.88,1.36-1.72,1.47-2.64C1271.35,521.54,1271.38,519.56,1271.28,517.58z"/>
	<path id="Path_23" d="M1219.29,529.21c1.35-3.73,2.55-7.26,3.95-10.7c0.5-0.64,1.27-1.01,2.08-0.99c1.32,0.06,3.43,0.14,3.79,0.89
		c1.58,3.35,2.67,6.94,4.03,10.73c-1.94-0.25-3.85,1.12-4.99-1.55c-0.21-0.5-3.59-0.5-3.8,0
		C1223.21,530.25,1221.19,528.81,1219.29,529.21z"/>
	<path id="Path_24" d="M1303.1,528.94c-3.23,1.02-5.51,0.05-7.01-3.06l-0.22,3.14h-3.94v-11.39h3.94c0.06,1.05,0.12,2.07,0.18,3.09
		c1.39-2.8,3.37-4.14,6.5-3.05c0,0.16,0.07,0.38-0.01,0.46c-3.57,3.52-3.26,6.9,0.36,10.17
		C1303.03,528.43,1303.03,528.72,1303.1,528.94z"/>
	<path id="Path_25" d="M1314.99,517.87l-1.13,2.95c-0.82-0.36-1.68-0.65-2.56-0.86c-0.73-0.02-1.46,0.06-2.17,0.23l-0.08,0.73
		c1.01,0.32,2.02,0.63,3.03,0.96c1.76,0.56,3.1,1.52,3.07,3.58c-0.02,2.13-1.31,3.22-3.24,3.71c-2.45,0.63-5.05,0.16-7.12-1.3
		l1.11-2.19l4.61,0.96l0.28-1.07c-0.91-0.33-1.81-0.69-2.73-0.99c-1.79-0.59-3.1-1.61-2.93-3.66c0-1.91,1.53-3.46,3.43-3.5
		C1310.72,517.43,1312.86,517.59,1314.99,517.87z"/>
	<path id="Path_26" d="M1206.1,517.75l-1.13,2.81l-4.67-0.64l-0.18,1.04c1.04,0.32,2.08,0.61,3.11,0.96
		c1.78,0.59,2.96,1.64,2.9,3.71c0.11,1.8-1.26,3.34-3.06,3.45c-0.02,0-0.05,0-0.07,0c-2.51,0.02-5.02-0.12-7.51-0.41l1.46-3.03
		c1.65,0.02,3.08,2.03,5.06-0.06c-1.18-0.4-2.1-0.72-3.02-1.04c-1.67-0.58-2.86-1.52-2.8-3.5c-0.1-1.81,1.26-3.38,3.07-3.54
		C1201.54,517.41,1203.83,517.5,1206.1,517.75z"/>
	<path id="Path_27" d="M1288.02,525.54l0.96,2.65c-3.64,1.96-7.51,1.55-9.52-0.89c-1.83-2.31-1.85-5.57-0.05-7.91
		c2.04-2.48,5.69-2.89,9.54-0.96l-1.02,2.74c-1.8-0.73-3.78-1.98-4.96,0.28c-0.52,0.99-0.48,3.16,0.18,3.68
		c1.06,0.84,2.86,0.75,4.34,1.05L1288.02,525.54z"/>
	<path id="Path_28" d="M1207.83,517.53h11.14l0.21,2.65l-3.53,0.27v8.56h-4.21v-8.5l-3.48-0.29L1207.83,517.53z"/>
	<path id="Path_29" d="M1262.53,391.46h-14.06l6.99-5.38L1262.53,391.46z"/>
	<path id="Path_30" d="M1250.29,425.58h10.51c-1.43,1.68-2.55,3.41-4.87,3.61C1253.16,429.43,1251.74,427.6,1250.29,425.58z"/>
	<path id="Path_31" d="M1258.67,421.29c-2.18,1.95-4.28,2.03-6.35,0H1258.67z"/>
</g>
</svg>
