<?xml version="1.0" encoding="utf-8"?>
<!-- Generator: Adobe Illustrator 23.0.3, SVG Export Plug-In . SVG Version: 6.00 Build 0)  -->
<svg version="1.1" id="Layer_1" xmlns="http://www.w3.org/2000/svg" xmlns:xlink="http://www.w3.org/1999/xlink" x="0px" y="0px"
	 viewBox="0 0 356 71" style="enable-background:new 0 0 356 71;" xml:space="preserve">
<style type="text/css">
	.st0{fill:none;stroke:#000000;stroke-width:4;stroke-linecap:round;stroke-miterlimit:10;}
</style>
<g id="Group_17" transform="translate(546.398 -639.059)">
	<g id="Group_14" transform="translate(-320.567 639.059)">
		<path id="Path_67" d="M45.81,19h5.16v12.53c3.14-2.79,6.54-4.08,10.47-3.61c3.78,0.34,7.24,2.26,9.53,5.29
			c3.86,5.05,3.49,12.15-0.87,16.77c-2.43,2.62-5.8,4.16-9.37,4.3c-3.58,0.17-7.08-1.11-9.7-3.57c-0.05,1.1-0.1,1.95-0.14,2.9h-5.09
			L45.81,19z M68.34,41.11c0.05-4.82-3.82-8.77-8.64-8.82c0,0-0.01,0-0.01,0c-4.82-0.01-8.75,3.88-8.79,8.7
			c-0.07,4.85,3.81,8.83,8.65,8.9c0.02,0,0.05,0,0.07,0C64.45,49.86,68.35,45.94,68.34,41.11z"/>
		<path id="Path_68" d="M14.07,19.01h5.19v1.4c0,6.57-0.07,13.14,0.05,19.71c0.02,1.71,0.38,3.4,1.06,4.97
			c1.57,3.46,5.09,5.04,9.04,4.39c3.71-0.52,6.61-3.48,7.05-7.2c0.13-1.01,0.19-2.02,0.18-3.03c0.02-6.17,0.02-12.35,0.01-18.52
			v-1.68h5.11v34.58h-5v-2.9c-0.24,0.11-0.48,0.24-0.7,0.38c-4.28,3.6-9.12,4.11-14.14,2.14s-7.6-6.07-7.78-11.32
			C13.88,34.35,14.07,26.77,14.07,19.01z"/>
		<path id="Path_69" d="M101.5,42.68H80.64c0.73,3.2,2.33,5.52,5.29,6.58c4.18,1.5,7.79,0.47,10.74-3.05l3.57,2.63
			c-2,2.77-5.01,4.64-8.38,5.21c-7.7,1.41-14.65-3.15-16.06-10.55c-1.15-6.12,2.11-12.22,7.84-14.65
			c6.04-2.38,12.53-0.45,15.85,4.75C101.14,36.32,101.85,39.51,101.5,42.68z M96.31,38.61c-0.66-3.9-4.18-6.66-8.13-6.36
			c-3.6,0.14-7.02,3.12-7.2,6.36H96.31z"/>
		<path id="Path_70" d="M104.4,28.41h5.12v2.7c3.42-2.8,4.92-3.32,7.8-2.73v4.39c-0.49,0.03-0.91,0.06-1.34,0.07
			c-4,0.03-6.3,2.29-6.34,6.33c-0.04,4.32-0.02,8.64-0.03,12.96c0,0.47,0,0.95,0,1.51h-5.2L104.4,28.41z"/>
	</g>
	<g id="Group_15" transform="translate(-546.399 642.827)">
		<path id="Path_71" d="M114.21,22.23c-0.76,3.02-2.2,4.38-5.2,4.12c-2.77-0.25-5.56-0.23-8.33,0.06c-1.15,0.33-2.08,1.19-2.49,2.31
			c-0.49,1.76,0.54,2.75,2.52,2.7c2.89-0.07,5.8-0.12,8.69,0.05c4.4,0.25,6.05,2.31,6.03,7.17c-0.02,4.75-1.82,6.93-6.18,7.05
			c-5.09,0.13-10.19,0.03-15.51,0.03c0.5-2.94,1.81-4.38,4.84-4.19c3,0.19,6.03-0.02,9.04,0.06c2.06,0.05,2.9-0.8,2.93-2.88
			c0.02-2.03-0.66-2.99-2.8-2.94c-3.13,0.13-6.26,0.09-9.38-0.1c-3.45-0.28-5.09-2.56-5.17-6.62c-0.07-3.95,1.61-6.6,4.97-6.77
			C103.44,22.04,108.73,22.23,114.21,22.23z"/>
		<path id="Path_72" d="M124.84,26.3v5.34h12.42c0.11,1.35,0.18,2.34,0.3,3.83h-12.71v6.11c3.32,0,6.64,0.19,9.92-0.05
			c2.95-0.22,4.51,1.01,5.28,3.98h-19.89V22.38h19.68c-0.47,2.78-1.78,4.15-4.78,3.97C131.74,26.15,128.39,26.3,124.84,26.3z"/>
		<path id="Path_73" d="M39.31,22.35h4.42c-0.1,2.32-0.07,4.64,0.09,6.96c0.09,0.79,1.17,2.04,1.86,2.08
			c3.54,0.21,7.11,0.1,11.07,0.1v-9.1h4.58v23.16h-4.49v-9.67H43.75v9.69h-4.44V22.35z"/>
		<path id="Path_74" d="M64.24,45.44c3.54-7.45,6.9-14.64,10.38-21.78c0.92-1.89,4.86-2.25,5.75-0.46
			c3.64,7.3,7.08,14.7,10.67,22.23c-3.22,0.66-5.63,0.78-6.66-2.75c-0.52-0.92-1.45-1.54-2.5-1.67C79,40.8,76.11,40.8,73.23,41
			c-0.95,0.11-1.8,0.67-2.27,1.51C70,45.97,67.64,46.19,64.24,45.44z M81.8,36.66l-4.19-9.43c-1.55,3.6-2.75,6.37-4.08,9.43H81.8z"
			/>
		<path id="Path_75" d="M35.73,22.24c-0.85,3.3-2.5,4.47-5.45,4.18c-2.53-0.25-5.1-0.03-7.65-0.05c-2.4-0.02-3.7,1.02-3.66,3.54
			c0.04,2.67,0.04,5.33,0,8c-0.04,2.53,1.31,3.54,3.68,3.53c2.44,0,4.89,0.21,7.3-0.04c3.04-0.31,4.87,0.82,5.68,3.9
			c-5.69,0-11.38,0.28-17.02-0.12c-2.77-0.2-4.34-2.67-4.46-5.48c-0.2-3.82-0.2-7.65,0.01-11.46c0.01-3.29,2.69-5.95,5.99-5.94
			c0.04,0,0.09,0,0.13,0C25.34,22.07,30.42,22.24,35.73,22.24z"/>
		<path id="Path_76" d="M171.89,47.23c0-5.63,0.01-10.91,0-16.2c-0.01-3.11,2.34-2.27,3.99-2.25c1.64,0.02,3.58-0.82,4.08,2.23
			C181.15,38.23,177.97,43.12,171.89,47.23z"/>
		<path id="Path_77" d="M151.36,41.26H170c0,2.06,0.1,4.09-0.07,6.09c-0.05,0.58-0.88,1.58-1.34,1.57
			c-4.43-0.07-9.28,1.54-12.64-3.16C154.87,44.24,153.26,43.09,151.36,41.26z"/>
		<path id="Path_78" d="M178.61,26.67h-18.22c-0.2-0.39-0.41-0.6-0.39-0.78c0.17-2.22,0.1-6.29,0.61-6.37
			c3.32-0.5,7.08-0.95,10.07,0.2C173.52,20.83,175.6,23.91,178.61,26.67z"/>
		<path id="Path_79" d="M157.76,20.44v18.11c-0.42,0.26-0.62,0.5-0.8,0.48c-2.29-0.25-5.07,0.17-6.71-1.01
			c-1.68-1.21-0.04-9.93,1.59-11.62C153.67,24.52,155.53,22.68,157.76,20.44z"/>
	</g>
	<g id="Group_16" transform="translate(-361.709 645.281)">
		<line id="Line_1" class="st0" x1="26.53" y1="19" x2="26.53" y2="44.05"/>
		<line id="Line_2" class="st0" x1="14" y1="31.53" x2="39.05" y2="31.53"/>
	</g>
</g>
</svg>
