<?xml version="1.0" encoding="utf-8"?>
<!-- Generator: Adobe Illustrator 23.0.3, SVG Export Plug-In . SVG Version: 6.00 Build 0)  -->
<svg version="1.1" id="Layer_1" xmlns="http://www.w3.org/2000/svg" xmlns:xlink="http://www.w3.org/1999/xlink" x="0px" y="0px"
	 viewBox="0 0 356 127" style="enable-background:new 0 0 356 127;" xml:space="preserve">
<g id="Group_12" transform="translate(476.098 -156.071)">
	<path id="Path_36" d="M-319.83,198.3c6.9,0,13.8-0.04,20.7,0.07c0.54,0.01,1.08,1.08,1.58,1.68c0.09,0.11,0.02,0.36,0.02,0.54
		c-0.15,8.92,1.3,7.27-7.29,7.68c-3.91,0.18-6.99-0.7-9.47-3.79C-315.95,202.41-317.83,200.51-319.83,198.3z"/>
	<path id="Path_37" d="M-312.22,196.33c-2.71,0-5.21,0.15-7.67-0.09c-0.93-0.28-1.64-1.02-1.9-1.95c-0.21-3.12-0.1-6.27-0.07-9.41
		c-0.04-0.55,0.1-1.1,0.4-1.57c2.9-3.17,5.86-6.28,9.24-9.87L-312.22,196.33z"/>
	<path id="Path_38" d="M-295.57,206.87c0-7.64-0.05-14.46,0.08-21.27c0.01-0.59,1.15-1.17,1.77-1.74c0.05-0.05,0.18-0.01,0.27-0.01
		c9.28,0.14,7.24-1.25,7.72,7.2c0.23,4.04-0.83,7.09-3.92,9.68C-291.72,202.67-293.7,204.72-295.57,206.87z"/>
	<path id="Path_39" d="M-287.14,181.79H-310c0-2.9-0.06-5.72,0.07-8.53c0.02-0.42,0.98-1.11,1.51-1.13
		c3.41-0.1,6.83-0.06,10.24-0.02c0.46,0.01,0.9,0.18,1.24,0.48C-293.84,175.45-290.78,178.35-287.14,181.79z"/>
	<path id="Path_40" d="M-332.48,258.05l3.55,6.52c-1.97,0.86-2.92,0.26-3.55-1.31c-0.46-1.3-1.08-2.55-1.83-3.71
		c-0.54-0.65-1.32-1.05-2.16-1.14c-0.32-0.03-0.94,1.12-1.06,1.79c-0.2,1.08,0.05,2.23-0.17,3.3c-0.11,0.54-0.8,0.97-1.23,1.45
		c-0.45-0.45-1.29-0.9-1.3-1.36c-0.09-4.89-0.08-9.77,0.02-14.66c0.01-0.45,0.87-1.19,1.39-1.24c1.56-0.14,3.14-0.14,4.7,0.01
		c2.5,0.22,4.49,1.3,4.97,3.99c0.46,2.59-0.16,4.78-2.83,5.94C-332.17,257.74-332.34,257.88-332.48,258.05z M-337.6,253.07
		c0.06,1.7-0.4,3.57,2.34,3.39c2.37-0.15,3.19-1.31,3.18-3.56c-0.01-2.32-1.25-3-3.3-3.12C-338.2,249.61-337.47,251.65-337.6,253.07
		L-337.6,253.07z"/>
	<path id="Path_41" d="M-161.39,251.28c0,3.63,0.07,7.18-0.05,10.72c-0.19,0.88-0.53,1.71-1,2.48c-0.4-0.85-1.11-1.69-1.14-2.55
		c-0.11-4.69-0.05-9.38-0.05-14.06c2.06-0.97,3.25-0.46,4.09,1.45c1.65,3.77,3.42,7.49,5.14,11.23c0-3.05,0-6.07,0-9.1
		c-0.06-0.92-0.03-1.84,0.11-2.75c0.1-0.46,0.74-0.81,1.14-1.21c0.34,0.45,0.95,0.89,0.96,1.34c0.07,5.14,0.04,10.29,0.04,15.32
		c-2.1,0.89-3.2,0.23-3.97-1.51C-157.8,258.87-159.59,255.14-161.39,251.28z"/>
	<path id="Path_42" d="M-435.32,264.21c0-1.74-0.09-3.4,0.02-5.03c0.19-2.72-1.69-2.27-3.32-2.34c-1.75-0.08-3.16,0.1-2.95,2.45
		c0.13,1.29,0.11,2.58-0.06,3.86c-0.08,0.51-0.81,0.93-1.24,1.39c-0.44-0.45-1.25-0.89-1.26-1.35c-0.09-4.79-0.09-9.58,0-14.38
		c0.01-0.46,0.82-0.91,1.25-1.37c0.44,0.46,1.12,0.86,1.25,1.39c0.18,0.91,0.21,1.84,0.06,2.75c-0.29,2.4,0.63,3.18,3.09,3.22
		c2.65,0.04,3.32-0.92,3.24-3.38c-0.04-1.31-1.08-3.74,1.13-3.83c2.76-0.11,1.31,2.52,1.39,3.85c0.22,3.68,0.04,7.37,0.09,11.06
		C-432.61,264.17-433.16,264.94-435.32,264.21z"/>
	<path id="Path_43" d="M-358.7,256.34c-0.13-1.37-0.11-2.76,0.05-4.12c0.36-1.67-1.65-4.55,2.27-4.62c6.18-0.11,8.54,1.25,8.83,5.39
		c0.23,3.38-1.68,6.01-4.96,5.98c-3.05-0.03-3.81,1.19-3.61,3.92c0.05,0.66-0.88,1.4-1.35,2.1c-0.41-0.67-1.12-1.32-1.17-2.02
		C-358.79,260.76-358.7,258.54-358.7,256.34z M-356.08,253.54c0.45,1.39-0.96,3.78,2.11,3.78c2.42,0,3.47-1.19,3.48-3.87
		c0.01-2.3-0.92-3.6-3.39-3.65C-356.96,249.73-355.72,252.04-356.08,253.54z"/>
	<path id="Path_44" d="M-388.97,247.4c2.64,0,5.12-0.05,7.58,0.04c0.46,0.02,0.89,0.63,1.34,0.98c-0.42,0.37-0.78,0.9-1.26,1.06
		c-0.63,0.13-1.28,0.15-1.92,0.06c-1.81-0.09-3.17-0.01-3.15,2.54c0.01,2.31,0.9,2.83,2.95,2.76c0.77-0.02,1.57,0.69,2.35,1.07
		c-0.76,0.31-1.56,0.94-2.28,0.87c-2.62-0.26-2.97,1.04-3.01,3.29c-0.04,2.68,1.59,2.3,3.26,2.44c1.22,0.21,2.42,0.52,3.58,0.95
		c-1.2,0.48-2.45,0.84-3.72,1.08c-1.81,0.19-3.66,0.05-5.72,0.05L-388.97,247.4z"/>
	<path id="Path_45" d="M-413.73,264.87c-0.74-0.53-1.92-0.92-2.14-1.62c-0.7-2.21-2.38-1.65-3.85-1.68
		c-1.41-0.03-2.98-0.42-3.56,1.66c-0.17,0.62-1.14,1.02-1.74,1.52l-0.72-0.62c1.61-5.25,3.18-10.51,4.87-15.73
		c0.37-0.57,0.99-0.92,1.67-0.93c0.67,0.09,1.25,0.49,1.57,1.08c1.64,5.16,3.16,10.35,4.71,15.54L-413.73,264.87z M-417.07,259.55
		c-0.8-3.07-1.5-5.74-2.2-8.42l-0.59,0.04l-2.19,8.38L-417.07,259.55z"/>
	<path id="Path_46" d="M-256.28,247.62c2.8,0,5.1-0.08,7.39,0.06c0.59,0.04,1.14,0.78,1.72,1.2c-0.49,0.43-1.03,0.78-1.62,1.06
		c-0.63,0.13-1.29,0.14-1.92,0.04c-1.75-0.11-2.97,0.06-2.97,2.42c0,2.21,0.71,3.07,2.87,2.81c0.55-0.1,1.11-0.08,1.64,0.07
		c0.4,0.14,0.69,0.63,1.02,0.97c-0.31,0.37-0.68,0.69-1.09,0.94c-0.44,0.14-0.91,0.15-1.37,0.05c-2.52-0.38-3.15,0.78-3.08,3.15
		c0.06,1.98,0.79,2.64,2.63,2.51c1.01-0.08,2.03-0.06,3.04,0.08c0.4,0.06,0.73,0.61,1.1,0.94c-0.34,0.35-0.66,1-1.01,1.01
		c-2.39,0.09-4.8,0.11-7.19,0c-0.55-0.18-0.98-0.63-1.12-1.2C-256.3,258.48-256.28,253.24-256.28,247.62z"/>
	<path id="Path_47" d="M-279.27,265.62c-1.3-0.92-2.62-1.36-2.88-2.14c-0.63-1.9-2-1.68-3.34-1.62c-1.45,0.07-3.21-0.63-3.94,1.56
		c-0.23,0.68-1.03,1.17-1.57,1.75l-0.81-0.55c0.34-1.29,0.64-2.59,1.03-3.87c1.11-3.71,2.18-7.43,3.42-11.1
		c0.27-0.79,1.19-1.35,1.81-2.02c0.65,0.62,1.65,1.13,1.9,1.88c1.55,4.73,2.94,9.51,4.37,14.28
		C-279.22,264.4-279.22,265.01-279.27,265.62z M-283.29,259.86c-0.76-2.97-1.43-5.6-2.1-8.22l-0.66,0.05
		c-0.71,2.66-1.42,5.31-2.19,8.18H-283.29z"/>
	<path id="Path_48" d="M-406.74,262.08c1.26,0.33,2.55,0.58,3.84,0.77c1.58,0.11,3.27,0.13,3.73-1.92c0.46-2.08-0.77-2.98-2.57-3.54
		c-4.26-1.35-5.38-2.73-4.59-6.4c0.28-1.31,1.49-3.05,2.63-3.38c1.81-0.53,3.92-0.06,5.89,0.08c0.18,0.01,0.49,0.8,0.4,1.14
		c-0.2,0.37-0.56,0.62-0.98,0.67c-1.1,0.05-2.29-0.31-3.28,0c-0.87,0.27-2.04,1.15-2.15,1.9c-0.12,0.8,0.72,1.87,1.36,2.63
		c0.36,0.42,1.16,0.5,1.79,0.65c2.24,0.54,3.96,1.58,4.12,4.15c0.13,2.06,0.26,4.6-1.96,5.26c-2.22,0.66-4.79,0.24-7.2,0.13
		C-405.99,264.18-406.23,263.16-406.74,262.08z"/>
	<path id="Path_49" d="M-180.45,255.74c0-2.12-0.11-4.26,0.06-6.36c0.06-0.69,0.81-1.82,1.34-1.88c2.11-0.18,4.24-0.2,6.35-0.04
		c0.42,0.02,0.8,0.73,1.2,1.12c-0.38,0.31-0.73,0.78-1.16,0.89c-0.64,0.1-1.28,0.13-1.93,0.07c-2.91,0.04-4.06,1.47-2.94,4.1
		c0.29,0.67,1.93,0.74,2.92,1.14c0.81,0.32,1.58,0.73,2.37,1.1c-0.7,0.42-1.46,0.72-2.26,0.91c-2.93,0.22-4.26,1.98-3.02,4.6
		c0.3,0.64,1.78,0.75,2.74,1.05c1.25,0.39,2.52,0.73,3.78,1.09c-1.23,0.49-2.52,0.82-3.83,0.99c-6.39-0.01-5.55,1.03-5.64-5.47
		c-0.02-1.11,0-2.21,0-3.32L-180.45,255.74z"/>
	<path id="Path_50" d="M-309.76,247.99c1.94-0.8,2.83-0.27,3.27,1.47c1.02,4.09,2.14,8.15,3.21,12.19
		c1.47-4.65,2.92-9.26,4.45-13.85c0.05-0.16,0.98-0.02,1.95-0.02c-1.68,5.56-3.23,10.93-4.95,16.24c-0.27,0.82-1.16,1.25-1.97,0.98
		c-0.45-0.15-0.81-0.5-0.97-0.94C-306.52,258.74-308.1,253.36-309.76,247.99z"/>
	<path id="Path_51" d="M-216.54,262.86c-0.25,0.38-0.49,1.25-1.04,1.53c-3.15,1.59-7,0.33-8.6-2.83c-0.07-0.13-0.13-0.27-0.19-0.41
		c-1.34-3.29-1.35-6.97-0.03-10.27c1.43-3.33,5.29-4.87,8.62-3.44c0.06,0.03,0.12,0.05,0.17,0.08c0.43,0.22,0.62,0.91,0.92,1.39
		c-0.49,0.26-1.01,0.77-1.47,0.72c-2.23-0.22-4.74-0.88-5.56,2.04c-0.96,3.4-1.53,7.17,0.96,10.01
		C-221.79,262.79-219.12,262.43-216.54,262.86z"/>
	<path id="Path_52" d="M-459.36,256.58c0,0.65,0.04,1.29,0.11,1.93c0.48,3.53,1.94,4.54,5.47,4.02c0.76,0.04,1.5,0.23,2.19,0.54
		c-0.61,0.53-1.14,1.34-1.86,1.56c-4.2,1.28-7.73-0.75-8.38-5.09c-0.38-2.54-0.35-5.12,0.09-7.64c0.7-3.41,4.03-5.61,7.44-4.92
		c0.47,0.1,0.93,0.25,1.37,0.45c0.51,0.21,0.78,0.98,1.16,1.49c-0.5,0.25-1,0.71-1.49,0.7
		C-458.6,249.52-459.38,250.31-459.36,256.58z"/>
	<path id="Path_53" d="M-270.16,257.44c0-1.2-0.05-2.4,0.01-3.59c0.12-2.27,0.15-4.37-3.15-3.96c-0.32,0.04-0.74-0.76-1.12-1.18
		c0.43-0.36,0.85-1.02,1.29-1.04c2.76-0.1,5.52-0.1,8.28,0c0.47,0.02,0.92,0.63,1.39,0.96c-0.45,0.44-0.94,1.29-1.35,1.25
		c-2.64-0.24-2.76,1.32-2.71,3.29c0.08,3.22,0.1,6.45-0.04,9.67c-0.03,0.73-0.87,1.41-1.34,2.12c-0.42-0.67-1.13-1.3-1.19-2
		C-270.27,261.13-270.15,259.28-270.16,257.44z"/>
	<path id="Path_54" d="M-141.42,257.26c0-1.2-0.03-2.4,0-3.6c0.06-2.24,0.47-4.69-3.16-4.2c-0.29,0.04-0.95-0.65-0.95-0.99
		c0.12-0.48,0.48-0.86,0.96-1c2.95-0.08,5.9-0.09,8.86-0.01c0.4,0.01,0.78,0.58,1.16,0.88c-0.39,0.4-0.82,1.17-1.16,1.13
		c-3.24-0.38-3.03,1.75-3.01,3.87c0.04,3.14,0.08,6.28-0.07,9.41c-0.03,0.61-0.92,1.19-1.42,1.78c-0.4-0.58-1.1-1.13-1.15-1.73
		C-141.52,260.96-141.42,259.1-141.42,257.26z"/>
	<path id="Path_55" d="M-208.47,264.57c0-5.54-0.03-10.6,0.05-15.66c0.01-0.5,0.75-0.98,1.15-1.47c0.48,0.51,1.35,1.01,1.37,1.54
		c0.13,3.5,0.19,7.01,0.05,10.51c-0.09,2.27,0.68,3.28,3,2.99c0.64-0.11,1.29-0.1,1.93,0.03c0.53,0.22,1.03,0.51,1.48,0.87
		c-0.49,0.4-0.96,1.11-1.47,1.14C-203.3,264.63-205.68,264.57-208.47,264.57z"/>
	<path id="Path_56" d="M-317.54,264.9h-2.97c0-5.33-0.04-10.55,0.06-15.77c0.01-0.51,0.89-1.01,1.37-1.51
		c0.51,0.49,1.46,0.97,1.47,1.48C-317.5,254.32-317.54,259.54-317.54,264.9z"/>
	<path id="Path_57" d="M-189.27,255.97c0,2.29,0.08,4.59-0.06,6.88c-0.04,0.59-0.77,1.14-1.18,1.71c-0.54-0.56-1.53-1.11-1.54-1.69
		c-0.13-4.58-0.13-9.17,0-13.76c0.02-0.59,0.99-1.15,1.52-1.72c0.42,0.57,1.16,1.11,1.2,1.7
		C-189.19,251.38-189.27,253.67-189.27,255.97z"/>
</g>
</svg>
