<?xml version="1.0" encoding="utf-8"?>
<!-- Generator: Adobe Illustrator 23.0.3, SVG Export Plug-In . SVG Version: 6.00 Build 0)  -->
<svg version="1.1" id="Layer_1" xmlns="http://www.w3.org/2000/svg" xmlns:xlink="http://www.w3.org/1999/xlink" x="0px" y="0px"
	 viewBox="0 0 276 136" style="enable-background:new 0 0 276 136;" xml:space="preserve">
<g id="Group_4" transform="translate(-1344.037 -207)">
	<path id="Path_32" d="M1513.21,219h34.55c4.15,7.9,8.29,15.79,12.76,24.29l13.52-24.29h33.04c-0.45,1.4-1,2.76-1.65,4.08
		c-8.72,15.27-17.43,30.55-26.32,45.72c-1.41,2.4-1.29,4.08,0.08,6.39c9.69,16.44,19.25,32.96,28.81,49.48
		c0.78,1.53,1.48,3.1,2.09,4.71h-34.54l-15.31-28.4l-15.48,28.4h-33.79c0.79-1.55,1.52-3.15,2.38-4.66
		c9.51-16.57,19-33.15,28.61-49.65c1.18-1.6,1.19-3.77,0.02-5.38c-8.99-15.28-17.9-30.6-26.72-45.98
		C1514.48,222.19,1513.8,220.61,1513.21,219z"/>
	<path id="Path_33" d="M1384.8,329.39h-30.76V219h66.81c0.53,9.91,1.06,19.82,1.62,30.15h-36.93v14.77h29.79v29.5
		c-8.81,0-17.31,0.15-25.8-0.07c-3.5-0.09-4.74,0.84-4.67,4.55C1385.07,308.39,1384.85,318.89,1384.8,329.39z"/>
	<path id="Path_34" d="M1526.75,274.08c-0.06,29.98-23.29,53.84-52.36,53.79c-29.7-0.05-52.85-23.8-52.79-54.15
		c0.11-29.35,23.99-53.05,53.34-52.95C1503.29,220.94,1526.81,245.13,1526.75,274.08z M1465.15,274.18c0,7.12-0.04,14.24,0.01,21.37
		c0.05,5.79,3.79,9.84,8.99,9.9c5.7,0.06,9.72-3.95,9.74-10c0.06-13.99,0.06-27.99,0-41.98c-0.02-6.15-4.2-10.9-9.47-10.95
		s-9.22,4.62-9.27,11.05C1465.12,260.43,1465.16,267.31,1465.15,274.18L1465.15,274.18z"/>
</g>
</svg>
